<?xml version="1.0" encoding="utf-8"?>
<!-- Generator: Adobe Illustrator 16.0.0, SVG Export Plug-In . SVG Version: 6.00 Build 0)  -->
<!DOCTYPE svg PUBLIC "-//W3C//DTD SVG 1.1//EN" "http://www.w3.org/Graphics/SVG/1.1/DTD/svg11.dtd">
<svg version="1.1" id="icons" xmlns="http://www.w3.org/2000/svg" xmlns:xlink="http://www.w3.org/1999/xlink" x="0px" y="0px"
	 width="64px" height="64px" viewBox="0 0 64 64" enable-background="new 0 0 64 64" xml:space="preserve">
<g>
	<path d="M3.006,46h0.002v4.002c0,0.553,0.447,1,1,1v4c0,0.553,0.447,1,1,1h0.061c0.5,4.493,4.316,8,8.941,8
		c4.624,0,8.439-3.507,8.939-8h0.061c0.553,0,1-0.447,1-1v-0.538c1.063,0.953,2.462,1.538,3.998,1.538L43,55.997
		c0.01,0,0.017,0.005,0.025,0.005c0.034,0,0.066-0.005,0.1-0.005l1.943-0.001c0.496,4.496,4.314,8.006,8.941,8.006
		c4.628,0,8.447-3.513,8.941-8.012h0.043c0.553,0,1-0.447,1-1c0-5.755-4.45-10.482-10.089-10.942l-2.732-20.046h1.833
		c0.553,0,1-0.448,1-1v-0.004h2c0.553,0,1-0.448,1-1v-8.002c0-0.552-0.447-1-1-1h-2c0-0.552-0.447-1-1-1h-7.992
		c-0.006,0-0.01,0.003-0.016,0.003c-2.15,0.005-4.106,1.166-5.168,2.999h-1.825c-0.001,0-0.001,0-0.002,0
		c-1.652,0.002-2.996,1.347-2.996,3s1.344,2.998,2.996,3c0.001,0,0.001,0,0.002,0h1.822c0.916,1.585,2.498,2.67,4.303,2.938
		l2.885,21.172c-0.058,2.155-1.819,3.894-3.989,3.894h-9.017V35.998v-0.001v-0.001c0-0.004-0.002-0.006-0.002-0.01V32
		c0-0.003-0.002-0.006-0.002-0.01V8.998c0-0.552-0.447-1-1-1h-4.002h-1.001H28V4.999c0-2.757-2.243-5-5-5
		c-0.712,0-1.387,0.154-2,0.424c-0.613-0.27-1.288-0.424-2-0.424c-2.757,0-5,2.243-5,5v2.999H8.005c-0.553,0-1,0.448-1,1v22.997
		c0,0.005,0.003,0.009,0.003,0.015v3.091C4.728,35.564,3.006,37.585,3.004,40c-1.653,0.001-2.998,1.347-2.998,3
		C0.006,44.654,1.352,46,3.006,46z M22.01,51.002v3H6.008v-3H22.01z M16.823,56.002c-0.413,1.161-1.513,2-2.813,2
		c-1.302,0-2.401-0.839-2.815-2H16.823z M14.01,62.002c-3.519,0-6.432-2.613-6.92-6h2.021c0.464,2.279,2.484,4,4.898,4
		s4.433-1.721,4.896-4h2.021C20.44,59.389,17.528,62.002,14.01,62.002z M54.01,62.002c-3.521,0-6.436-2.617-6.921-6.007h2.021
		c0.462,2.282,2.482,4.007,4.899,4.007s4.438-1.727,4.898-4.011h2.021C60.446,59.383,57.531,62.002,54.01,62.002z M51.191,55.994
		l5.635-0.002c-0.41,1.166-1.512,2.01-2.816,2.01S51.604,57.16,51.191,55.994z M61.936,53.99L49.34,53.995
		c2.558-1.802,4.318-4.66,4.632-7.939C58.146,46.504,61.471,49.821,61.936,53.99z M55.006,14.996v6.002h-1v-6.002H55.006z
		 M46.004,16.998c0.552,0,1,0.449,1,1s-0.448,1-1,1H40.82c0.112-0.314,0.185-0.647,0.185-1s-0.072-0.686-0.185-1H46.004z
		 M37.007,17.998c0-0.551,0.448-1,1-1c0.551,0,0.998,0.449,0.998,1s-0.447,1-0.998,1C37.455,18.998,37.007,18.549,37.007,17.998z
		 M42.362,20.998h3.642c1.654,0,3-1.346,3-3s-1.346-3-3-3h-3.637c0.717-0.632,1.652-1,2.646-1c0.004,0,0.006-0.002,0.01-0.002h6.982
		v8.006h-6.992C44.018,22.001,43.08,21.632,42.362,20.998z M49.025,45.002c0-0.044-0.02-0.082-0.025-0.124
		c0-0.004,0.002-0.007,0.001-0.011l-2.844-20.866h2.997l2.857,20.971c0,0.01-0.006,0.019-0.006,0.029
		c0,0.027,0.014,0.051,0.016,0.077c-0.042,4.894-4.006,8.864-8.896,8.918l-15.117,0.005c-1.859,0-3.412-1.279-3.859-3h18.877
		C46.334,51.002,49.025,48.311,49.025,45.002z M9.008,33h22.999v1.996H9.008V33z M32.005,30.995h-2.002V9.998h2.002V30.995z
		 M26,4.999v2.999h-2V4.999c0-1.129-0.39-2.16-1.023-2.998c0.008,0,0.016-0.002,0.023-0.002C24.654,1.999,26,3.344,26,4.999z
		 M20,7.998V4.999c0-0.883,0.391-1.67,1-2.22c0.609,0.549,1,1.336,1,2.22v2.999H20z M16,4.999c0-1.654,1.346-3,3-3
		c0.008,0,0.016,0.002,0.023,0.002C18.39,2.839,18,3.87,18,4.999v2.999h-2V4.999z M9.005,9.998h18.997h0.001v20.997h-0.001H9.005
		V9.998z M8.006,37c0.007,0,0.013-0.004,0.02-0.004h23.983v12.006h-8.993c-0.004,0-0.006-0.002-0.01-0.002s-0.006,0.002-0.01,0.002
		H5.008v-8.998c0-0.005-0.003-0.009-0.003-0.013C5.013,38.341,6.355,37,8.006,37z M3.006,42h0.002v2H3.006c-0.552,0-1-0.448-1-1
		S2.454,42,3.006,42z"/>
	<path d="M18.002,13c-0.553,0-1,0.448-1,1v0.999H16.5V14c0-0.552-0.447-1-1-1s-1,0.448-1,1v0.999h-0.499V14c0-0.552-0.447-1-1-1
		s-1,0.448-1,1v3.999C12.001,18,12,18.001,12,18.003C12,19.104,12.896,20,13.997,20h0.504v7c0,0.552,0.447,1,1,1s1-0.448,1-1v-7
		h0.489c0.004,0,0.006,0.002,0.01,0.002c1.103,0,2.001-0.897,2.002-2c0,0,0,0,0-0.001V14C19.002,13.447,18.555,13,18.002,13z
		 M17.002,16.999v0.994C17.002,17.996,17,17.998,17,18h-2.999v-1.002H17.002z"/>
	<path d="M21.01,12.998c-0.002,0-0.004-0.001-0.006-0.001c-0.001,0-0.001,0-0.002,0s-0.003,0-0.004,0c-0.553,0-1,0.448-1,1
		c0,0.01,0.006,0.019,0.006,0.029V27c0,0.552,0.447,1,1,1s1-0.448,1-1v-4.003h2c0.553,0,1-0.448,1-1v-4.995
		C25.004,14.797,23.213,13.004,21.01,12.998z M22.004,15.277c0.595,0.348,1,0.987,1,1.725v3.995h-1V15.277z"/>
</g>
</svg>
