<?xml version="1.0" encoding="utf-8"?>
<!-- Generator: Adobe Illustrator 16.0.0, SVG Export Plug-In . SVG Version: 6.00 Build 0)  -->
<!DOCTYPE svg PUBLIC "-//W3C//DTD SVG 1.1//EN" "http://www.w3.org/Graphics/SVG/1.1/DTD/svg11.dtd">
<svg version="1.1" id="icons" xmlns="http://www.w3.org/2000/svg" xmlns:xlink="http://www.w3.org/1999/xlink" x="0px" y="0px"
	 width="64px" height="64px" viewBox="0 0 64 64" enable-background="new 0 0 64 64" xml:space="preserve">
<g>
	<path d="M38,0c-2.307,0-4.406,0.879-6,2.311C30.406,0.879,28.307,0,26,0c-4.963,0-9,4.037-9,9v3H4c-0.553,0-1,0.447-1,1v50
		c0,0.553,0.447,1,1,1h44h12c0.145,0,0.279-0.033,0.403-0.088c0.031-0.014,0.056-0.04,0.085-0.058
		c0.092-0.053,0.177-0.11,0.246-0.188c0.011-0.011,0.024-0.014,0.034-0.025c0.031-0.037,0.041-0.082,0.065-0.122
		c0.037-0.059,0.074-0.114,0.098-0.181c0.024-0.067,0.032-0.136,0.042-0.207C60.979,63.086,61,63.047,61,63V13c0-0.553-0.447-1-1-1
		H48h-1V9C47,4.037,42.963,0,38,0z M31,9c0-1.312,0.369-2.536,1-3.587C32.631,6.464,33,7.688,33,9v3h-2V9z M19,9
		c0-3.859,3.141-7,7-7c1.794,0,3.428,0.685,4.668,1.799C29.622,5.27,29,7.062,29,9v3H19V9z M5,14h12v6c0,0.553,0.447,1,1,1
		s1-0.447,1-1v-6h14v6c0,0.553,0.447,1,1,1s1-0.447,1-1v-6h12v48H5V14z M54,59.303L57.237,62h-6.475L54,59.303z M53,57.531l-4,3.333
		V14h4V57.531z M59,60.864l-4-3.333V14h4V60.864z M35,12V9c0-1.938-0.622-3.73-1.668-5.201C34.572,2.685,36.206,2,38,2
		c3.859,0,7,3.141,7,7v3H35z"/>
	<path d="M25.007,25.997c-0.553,0-1,0.447-1,1v7.004h-1v-7.004c0-0.553-0.447-1-1-1s-1,0.447-1,1v7.004h-1.003v-7.004
		c0-0.553-0.447-1-1-1s-1,0.447-1,1v7.004h-1v-7.004c0-0.553-0.447-1-1-1s-1,0.447-1,1v10.006c0,1.654,1.346,3,3,3v15.501
		c0,1.379,1.122,2.501,2.502,2.501c1.379,0,2.501-1.122,2.501-2.501V40.003c1.654,0,3-1.346,3-3V26.997
		C26.007,26.444,25.56,25.997,25.007,25.997z M21.007,55.504c0,0.276-0.225,0.501-0.501,0.501s-0.502-0.225-0.502-0.501V40.003
		h1.003V55.504z M23.007,38.003h-0.98c-0.007,0-0.013-0.004-0.02-0.004s-0.013,0.004-0.02,0.004h-2.964
		c-0.007,0-0.013-0.004-0.02-0.004s-0.013,0.004-0.02,0.004h-0.98c-0.552,0-1-0.448-1-1v-1.002h7.003v1.002
		C24.007,37.555,23.559,38.003,23.007,38.003z"/>
	<path d="M29.997,25.994c-0.553,0-1,0.447-1,1c0,0.001,0.001,0.002,0.001,0.004c0,0.001-0.001,0.002-0.001,0.003v28.503
		c0,1.379,1.122,2.501,2.502,2.501c1.379,0,2.501-1.122,2.501-2.501v-10.5h2.997c0.553,0,1-0.447,1-1v-10.01
		C37.997,29.583,34.408,25.994,29.997,25.994z M32,55.504c0,0.276-0.225,0.501-0.501,0.501s-0.502-0.225-0.502-0.501v-10.5H32
		V55.504z M35.997,43.004h-5v-14.92c2.833,0.479,5,2.943,5,5.91V43.004z"/>
</g>
</svg>
